<?xml version="1.0" encoding="utf-8" ?>
<svg xmlns="http://www.w3.org/2000/svg" xmlns:xlink="http://www.w3.org/1999/xlink" width="500" height="500">
	<defs>
		<linearGradient id="gradient_0" gradientUnits="userSpaceOnUse" x1="334.99753" y1="157.27824" x2="317.0614" y2="156.97694">
			<stop offset="0" stop-color="#E31A9F"/>
			<stop offset="1" stop-color="#EE4E6A"/>
		</linearGradient>
	</defs>
	<path fill="url(#gradient_0)" d="M303.528 140.88C312.613 139.358 329.039 139.049 337.601 142.023C335.816 142.041 333.677 142.491 332.365 143.784C329.896 146.218 330.787 150.366 330.712 153.497C330.656 155.866 330.524 158.327 330.169 160.669C329.863 162.689 330.987 164.159 331.291 166.065C331.428 166.925 331.215 167.684 331.422 168.555C331.609 169.337 331.479 169.979 331.325 170.754C330.581 171.421 329.714 171.943 329.458 172.923C329.648 173.487 329.894 173.809 330.278 174.26C331.719 174.771 333.3 175.206 334.595 176.02L334.77 176.582C332.344 175.788 329.991 174.874 327.504 174.271Q325.982 173.905 324.437 173.658Q322.892 173.41 321.332 173.282Q319.773 173.154 318.208 173.146Q316.643 173.138 315.082 173.251Q313.521 173.364 311.973 173.596Q310.426 173.829 308.901 174.179Q307.375 174.53 305.882 174.997Q304.388 175.464 302.935 176.045C303.081 175.737 303.256 175.5 303.456 175.225C308.024 172.88 313.021 172.824 318.035 172.335L318.046 172.304C316.419 169.028 317.582 161.276 317.557 157.375C317.533 153.555 317.362 149.731 317.339 145.907C317.329 144.349 317.716 142.39 317.382 140.916C315.401 138.947 306.227 142.231 303.528 140.88Z"/>
	<path fill="#6E3388" d="M373.219 162.747C380.543 171.262 387.829 182.671 386.969 194.378C386.729 197.648 385.255 200.401 382.773 202.525C380.693 204.305 377.525 205.845 374.805 206.184C374.027 206.062 372.896 205.887 372.265 205.38C371.127 204.465 371.331 186.26 371.229 183.58C371.08 179.717 370.919 165.23 373.219 162.747Z"/>
	<defs>
		<linearGradient id="gradient_1" gradientUnits="userSpaceOnUse" x1="172.90457" y1="247.03172" x2="144.7281" y2="246.66005">
			<stop offset="0" stop-color="#623D84"/>
			<stop offset="1" stop-color="#006497"/>
		</linearGradient>
	</defs>
	<path fill="url(#gradient_1)" d="M175.577 268.243C167.457 268.557 158.679 266.411 152.138 261.48C147.808 258.216 145.26 253.656 144.579 248.282C144.102 244.518 144.533 241.287 146.94 238.211C153.85 229.381 166.268 226.926 176.759 225.698L176.841 226.113C175.551 226.549 174.2 226.347 173.005 226.76C172.789 228.98 173.175 231.344 173.164 233.587C173.147 236.829 172.854 240.065 172.883 243.309C172.952 250.961 173.578 258.522 171.98 266.082C171.927 266.329 171.892 266.58 171.854 266.831C172.583 267.62 173.836 267.792 174.842 268.011C175.282 268.108 175.102 268.06 175.577 268.243Z"/>
	<defs>
		<linearGradient id="gradient_2" gradientUnits="userSpaceOnUse" x1="253.61963" y1="312.21124" x2="293.51474" y2="318.332">
			<stop offset="0" stop-color="#313564"/>
			<stop offset="1" stop-color="#58377C"/>
		</linearGradient>
	</defs>
	<path fill="url(#gradient_2)" d="M261.17 286.799C266.635 286.666 271.724 287.311 275.847 291.23C278.647 293.891 280.438 297.347 282.893 300.29C285.911 303.908 290.762 307.4 294.801 309.78C296.093 310.541 297.526 311.1 298.782 311.9C298.638 311.9 298.493 311.904 298.349 311.899C296.723 311.845 294.243 310.344 292.609 309.763C291.622 312.116 291.15 317.12 290.851 319.801C290.466 323.261 290.473 326.765 290.255 330.238C290.065 333.258 289.634 336.24 289.245 339.239C289.112 340.262 288.666 342.493 289.118 343.429C289.311 343.829 289.627 344.204 289.89 344.56C289.952 344.644 290.002 344.739 290.075 344.814C291.313 346.083 295.772 345.783 296.468 347.053L296.333 347.315C295.271 347.056 294.207 346.807 293.153 346.516C282.036 343.447 271.263 337.99 262.924 329.893C261.327 328.341 259.9 326.591 258.422 324.925C256.152 322.363 253.909 319.961 252.214 316.967C258.129 307.053 260.667 298.243 261.17 286.799Z"/>
	<defs>
		<linearGradient id="gradient_3" gradientUnits="userSpaceOnUse" x1="327.74005" y1="171.37978" x2="375.94043" y2="176.66745">
			<stop offset="0" stop-color="#F61BA3"/>
			<stop offset="1" stop-color="#9B29A3"/>
		</linearGradient>
	</defs>
	<path fill="url(#gradient_3)" d="M337.601 142.023C350.76 145.437 364.179 152.455 373.219 162.747C370.919 165.23 371.08 179.717 371.229 183.58C371.331 186.26 371.127 204.465 372.265 205.38C372.896 205.887 374.027 206.062 374.805 206.184C372.805 206.886 369.675 206.879 367.566 206.679C355.652 205.551 354.338 194.716 348.16 186.806C344.204 181.74 340.601 179.054 334.77 176.582L334.595 176.02C333.3 175.206 331.719 174.771 330.278 174.26C329.894 173.809 329.648 173.487 329.458 172.923C329.714 171.943 330.581 171.421 331.325 170.754C331.479 169.979 331.609 169.337 331.422 168.555C331.215 167.684 331.428 166.925 331.291 166.065C330.987 164.159 329.863 162.689 330.169 160.669C330.524 158.327 330.656 155.866 330.712 153.497C330.787 150.366 329.896 146.218 332.365 143.784C333.677 142.491 335.816 142.041 337.601 142.023Z"/>
	<defs>
		<linearGradient id="gradient_4" gradientUnits="userSpaceOnUse" x1="177.90036" y1="288.70865" x2="258.314" y2="266.4393">
			<stop offset="0" stop-color="#8E389B"/>
			<stop offset="1" stop-color="#F010B3"/>
		</linearGradient>
	</defs>
	<path fill="url(#gradient_4)" d="M202.308 223.912C205.957 225.278 210.055 225.219 213.873 225.836C222.1 227.167 229.644 231.265 236.629 235.573C236.676 235.622 236.722 235.671 236.77 235.719C239.17 238.159 242.225 239.943 244.668 242.362C252.826 250.442 259.043 262.227 260.529 273.598C261.099 277.961 260.544 282.484 261.17 286.799C260.667 298.243 258.129 307.053 252.214 316.967C245.693 325.205 240.049 332.661 231.056 338.539C229.436 339.598 227.638 340.884 225.836 341.605C226.531 340.055 229.672 339.153 230.991 337.913C230.99 337.825 231.008 337.735 230.987 337.65C230.836 337.02 230.469 336.483 230.356 335.807C229.604 331.322 230.275 326.392 230.334 321.853C230.382 318.164 229.916 314.482 229.879 310.792C229.803 303.19 230.703 293.975 229.072 286.599L228.964 286.122C228.625 284.592 227.312 283.753 226.804 282.36C226.614 281.837 226.767 282.173 226.516 281.682L226.162 283.195C225.995 283.107 226.281 280.22 225.884 279.567C225.471 272.427 221.574 266.229 216.912 261.031C209.254 268.338 198.426 268.455 188.522 268.385L175.577 268.243C175.102 268.06 175.282 268.108 174.842 268.011C173.836 267.792 172.583 267.62 171.854 266.831C171.892 266.58 171.927 266.329 171.98 266.082C173.578 258.522 172.952 250.961 172.883 243.309C172.854 240.065 173.147 236.829 173.164 233.587C173.175 231.344 172.789 228.98 173.005 226.76C174.2 226.347 175.551 226.549 176.841 226.113L176.759 225.698C178.394 225.231 180.433 225.208 182.134 225.151C188.474 224.935 196.337 226.092 202.308 223.912Z"/>
	<defs>
		<linearGradient id="gradient_5" gradientUnits="userSpaceOnUse" x1="135.97334" y1="342.55743" x2="208.95021" y2="264.98904">
			<stop offset="0" stop-color="#27375B"/>
			<stop offset="1" stop-color="#7F3290"/>
		</linearGradient>
	</defs>
	<path fill="url(#gradient_5)" d="M225.836 341.605C225.785 341.672 225.747 341.751 225.683 341.806C224.235 343.024 221.431 343.784 219.639 344.526C207.593 349.515 194.842 352.64 181.718 352.192C169.515 351.776 158.108 349.288 146.675 345.108C143.733 344.033 140.743 343.023 137.958 341.576C131.097 338.01 124.251 332.74 119.012 327.115C109.37 316.764 102.37 300.888 102.938 286.585C103.103 282.434 104.593 278.553 107.687 275.712C111.27 272.421 116.083 270.898 120.898 271.134C123.396 271.257 125.835 271.846 128.052 273.021C134.633 276.507 134.703 283.561 136.885 289.796C138.633 294.79 141.168 299.319 144.757 303.22C154.269 313.557 166.375 318.293 180.248 318.792C192.485 319.232 205.168 315.394 214.203 306.943C222.03 299.622 225.484 290.098 225.884 279.567C226.281 280.22 225.995 283.107 226.162 283.195L226.516 281.682C226.767 282.173 226.614 281.837 226.804 282.36C227.312 283.753 228.625 284.592 228.964 286.122L229.072 286.599C230.703 293.975 229.803 303.19 229.879 310.792C229.916 314.482 230.382 318.164 230.334 321.853C230.275 326.392 229.604 331.322 230.356 335.807C230.469 336.483 230.836 337.02 230.987 337.65C231.008 337.735 230.99 337.825 230.991 337.913C229.672 339.153 226.531 340.055 225.836 341.605Z"/>
	<defs>
		<linearGradient id="gradient_6" gradientUnits="userSpaceOnUse" x1="248.08601" y1="219.03607" x2="331.24231" y2="199.37599">
			<stop offset="0" stop-color="#FFAC00"/>
			<stop offset="1" stop-color="#F36849"/>
		</linearGradient>
	</defs>
	<path fill="url(#gradient_6)" d="M303.528 140.88C306.227 142.231 315.401 138.947 317.382 140.916C317.716 142.39 317.329 144.349 317.339 145.907C317.362 149.731 317.533 153.555 317.557 157.375C317.582 161.276 316.419 169.028 318.046 172.304L318.035 172.335C313.021 172.824 308.024 172.88 303.456 175.225C303.256 175.5 303.081 175.737 302.935 176.045C301.027 176.848 298.934 177.511 297.13 178.513C291.166 181.825 285.618 187.727 283.015 194.056C280.801 199.438 280.566 206.482 282.851 211.883C288.173 224.465 310.011 234.264 321.493 240.443C326.575 243.178 338.741 250.317 342.544 254.303C343.747 255.564 345.402 257.597 344.553 259.452C343.626 261.477 340.75 262.679 338.739 263.318C323.054 268.306 295.28 265.983 280.769 258.273C268.424 251.713 257.971 241.818 251.84 229.144C250.239 225.835 249.353 222.111 247.737 218.882C244.854 211.055 245.315 199.937 246.982 191.897C247.606 188.889 248.63 185.964 249.355 182.977C250.675 180.648 251.697 178.138 252.952 175.77C254.431 172.978 256.162 170.39 257.999 167.827C259.962 165.089 261.95 162.436 264.37 160.076C266.813 157.694 269.579 155.746 272.382 153.819C281.915 147.264 292.071 142.776 303.528 140.88Z"/>
	<path fill="#3A3666" d="M202.308 223.912C208.832 220.19 214.273 216.09 217.152 208.88C219.015 204.216 218.793 199.646 216.819 195.062C213.297 186.884 206.237 180.419 197.997 177.206C187.995 173.307 175.313 174.22 165.571 178.579C157.185 182.33 151.252 190.087 147.794 198.423C146.713 201.029 146.026 203.78 145.018 206.414C143.556 210.236 141.003 213.204 137.222 214.863C132.864 216.774 127.48 216.523 123.103 214.778C119.705 213.423 116.512 210.741 115.108 207.31C112.132 200.038 116.167 187.324 119.294 180.389C126.716 163.928 141.77 151.421 158.488 145.165C175.124 138.94 198.516 139.305 214.763 146.708C219.013 148.644 223.011 151.094 226.838 153.761C229.7 155.755 232.641 157.757 235.183 160.154C241.284 165.908 246.257 174.916 249.219 182.629L249.355 182.977C248.63 185.964 247.606 188.889 246.982 191.897C245.315 199.937 244.854 211.055 247.737 218.882C245.217 224.182 241.143 231.702 236.629 235.573C229.644 231.265 222.1 227.167 213.873 225.836C210.055 225.219 205.957 225.278 202.308 223.912Z"/>
	<defs>
		<linearGradient id="gradient_7" gradientUnits="userSpaceOnUse" x1="287.4689" y1="284.00818" x2="390.72836" y2="281.76572">
			<stop offset="0" stop-color="#703B8D"/>
			<stop offset="1" stop-color="#F512B5"/>
		</linearGradient>
	</defs>
	<path fill="url(#gradient_7)" d="M298.782 311.9C301.472 312.941 304.127 314.076 306.934 314.778C315.463 316.91 325.337 316.052 333.406 312.602C343.587 308.248 351.504 299.462 355.58 289.255C360.794 276.196 357.356 266.58 347.773 256.849C344.509 253.535 341.297 250.292 337.409 247.695C334.382 245.674 331.317 243.625 328.127 241.867C322.263 238.636 300.406 228.43 298.386 223.237C298.135 222.591 298.106 221.922 298.402 221.277C299.04 219.887 300.79 219.09 302.15 218.63C310.076 215.95 333.142 217.135 341.836 219.027C347.129 220.178 352.498 222.117 357.366 224.502C368.389 229.901 382.568 242.479 386.618 254.231Q387.262 255.519 387.842 256.837Q388.422 258.155 388.936 259.5Q389.451 260.845 389.898 262.214Q390.345 263.583 390.725 264.972Q391.104 266.361 391.414 267.767Q391.725 269.173 391.965 270.593Q392.206 272.013 392.376 273.443Q392.547 274.872 392.646 276.309Q392.746 277.746 392.775 279.185Q392.804 280.625 392.761 282.064Q392.719 283.504 392.606 284.939Q392.493 286.375 392.309 287.803Q392.125 289.231 391.871 290.649Q391.617 292.066 391.294 293.469Q390.97 294.872 390.578 296.258Q390.185 297.644 389.725 299.008C389.221 300.545 388.676 302.131 387.909 303.557C386.411 308.511 383.892 313.52 380.929 317.742C375.29 325.777 363.607 336.201 354.897 340.837C351.964 342.399 348.9 343.534 345.789 344.674C332.574 349.514 319.139 351.112 305.158 349.146C302.492 348.771 299.026 348.425 296.541 347.44C296.466 347.41 296.403 347.357 296.333 347.315L296.468 347.053C295.772 345.783 291.313 346.083 290.075 344.814C290.002 344.739 289.952 344.644 289.89 344.56C289.627 344.204 289.311 343.829 289.118 343.429C288.666 342.493 289.112 340.262 289.245 339.239C289.634 336.24 290.065 333.258 290.255 330.238C290.473 326.765 290.466 323.261 290.851 319.801C291.15 317.12 291.622 312.116 292.609 309.763C294.243 310.344 296.723 311.845 298.349 311.899C298.493 311.904 298.638 311.9 298.782 311.9Z"/>
	<path fill="#E911AE" d="M386.618 254.231Q387.262 255.519 387.842 256.837Q388.422 258.155 388.936 259.5Q389.451 260.845 389.898 262.214Q390.345 263.583 390.725 264.972Q391.104 266.361 391.414 267.767Q391.725 269.173 391.965 270.593Q392.206 272.013 392.376 273.443Q392.547 274.872 392.646 276.309Q392.746 277.746 392.775 279.185Q392.804 280.625 392.761 282.064Q392.719 283.504 392.606 284.939Q392.493 286.375 392.309 287.803Q392.125 289.231 391.871 290.649Q391.617 292.066 391.294 293.469Q390.97 294.872 390.578 296.258Q390.185 297.644 389.725 299.008C389.221 300.545 388.676 302.131 387.909 303.557C387.812 303.169 387.739 302.881 387.878 302.49C388.042 302.032 388.212 301.694 388.222 301.193C388.326 295.762 391.208 290.927 390.131 285.359C390.036 284.868 390.119 284.835 389.7 284.549C389.247 285.303 388.924 286.107 388.581 286.916C388.421 285.377 388.199 283.81 388.372 282.265C388.804 278.402 390.843 275.314 390.546 271.241C390.29 267.734 386.38 255.579 386.618 254.231Z"/>
</svg>
