<?xml version="1.0" encoding="utf-8" ?>
<svg xmlns="http://www.w3.org/2000/svg" xmlns:xlink="http://www.w3.org/1999/xlink" width="100" height="67">
	<path fill="#C5C5C5" d="M0 0L15.375 0L89.6158 0L99.5625 0C100.23 1.02438 100.296 16.8259 99.9056 18.6579Q99.8328 18.9882 99.6883 19.294C100.259 20.5774 100.299 39.9314 99.8233 41.1527C99.7826 41.2569 99.739 41.3582 99.6875 41.4575C100.128 42.5399 100.311 65.3523 99.8019 66.572Q99.7065 66.7996 99.5625 67L74.0809 67L53.7694 67L44.1487 67L41.6127 67L37.8769 67L33.9093 67L31.0452 67L30.1332 67L26.2467 67L22.2328 67L17.2115 67L14.2386 67L0 67L0 14.5833L0 0Z"/>
	<path fill="#4C322E" d="M49.92 16.8208C50.4621 16.4459 50.8097 16.1491 51.1393 15.5665C53.0668 18.1056 53.6431 19.3909 53.4787 22.595C51.6465 21.5443 52.3185 20.0339 51.0076 18.7739C50.4178 18.2276 50.1978 17.5528 49.92 16.8208Z"/>
	<path fill="#745B54" d="M22.8026 45.2899L23.3403 45.1933L23.7161 46.0179C23.9711 46.0803 24.2361 46.1645 24.4962 46.1978C23.9246 47.5959 24.2058 49.253 23.7791 50.7292C22.6293 51.6273 21.6511 53.4025 20.1273 53.3044C19.6518 52.9989 19.4917 52.7488 19.3045 52.2195C20.5649 49.9775 21.647 47.5905 22.8026 45.2899Z"/>
	<path fill="#2C2B27" d="M44.208 10.859C46.5132 11.7731 50.0629 13.0625 51.1188 15.5169C51.1259 15.5333 51.1325 15.5499 51.1393 15.5665C50.8097 16.1491 50.4621 16.4459 49.92 16.8208C48.7491 16.9312 47.7111 16.6747 46.5832 16.4083C45.8119 16.2774 45.028 16.2166 44.2499 16.1397L44.114 15.8773C45.8814 12.5806 43.5348 12.8633 44.208 10.859Z"/>
	<path fill="#757272" d="M38.4677 25.5372C37.732 23.7479 37.8575 21.4461 38.0921 19.5589C38.4382 16.7743 39.581 13.4123 41.8852 11.636C42.5538 11.1205 43.3762 10.7521 44.208 10.859C43.5348 12.8633 45.8814 12.5806 44.114 15.8773L44.2499 16.1397C45.028 16.2166 45.8119 16.2774 46.5832 16.4083C45.5479 16.4953 44.4492 16.5225 43.453 16.8284C42.4698 16.576 41.4727 16.1999 40.5304 16.7722C39.7458 17.2488 39.3131 18.1124 39.1135 18.9786C38.929 19.7791 38.6704 20.8803 38.7269 21.6905C38.4477 22.9928 38.4447 24.2162 38.4677 25.5372Z"/>
	<path fill="#57403A" d="M51.0076 18.7739C52.3185 20.0339 51.6465 21.5443 53.4787 22.595L53.2477 23.3446C54.4334 26.7258 53.1681 29.788 52.6312 33.1736L52.4948 32.279C51.9912 31.9486 51.8875 31.8339 51.2929 31.8594L50.9924 32.322C50.554 31.6198 50.1834 31.0173 50.0145 30.1956C50.0256 30.1835 50.037 30.1716 50.0479 30.1592C51.1356 28.9267 50.9048 27.554 51.8264 26.3935C51.9018 26.2984 51.8311 25.8179 51.8225 25.6713C50.8712 25.3131 50.4239 25.1243 49.952 24.2227C50.1831 23.4774 50.0763 22.663 50.0346 21.8951Q50.0843 21.8542 50.1331 21.8122C51.0367 21.0346 50.9264 19.8763 51.0076 18.7739Z"/>
	<path fill="#4C322E" d="M48.0098 22.5455L50.0346 21.8951C50.0763 22.663 50.1831 23.4774 49.952 24.2227C50.4239 25.1243 50.8712 25.3131 51.8225 25.6713C51.8311 25.8179 51.9018 26.2984 51.8264 26.3935C50.9048 27.554 51.1356 28.9267 50.0479 30.1592C50.037 30.1716 50.0256 30.1835 50.0145 30.1956C49.83 30.9642 49.7965 31.1728 49.2062 31.7441C49.109 32.1658 49.0583 32.4612 48.6899 32.7293L48.2421 32.5715C47.6964 31.7914 47.2106 29.1694 46.7504 27.9752C46.9315 27.5019 47.0086 26.922 47.1253 26.4246L46.6132 25.6389C46.7742 24.2817 46.9451 23.4746 48.0098 22.5455Z"/>
	<path fill="#745B54" d="M47.6574 26.8029C48.4851 25.71 48.163 24.5297 48.8041 23.8384C49.396 23.7962 49.4665 23.8757 49.952 24.2227C50.4239 25.1243 50.8712 25.3131 51.8225 25.6713C51.8311 25.8179 51.9018 26.2984 51.8264 26.3935C50.9048 27.554 51.1356 28.9267 50.0479 30.1592C50.037 30.1716 50.0256 30.1835 50.0145 30.1956C49.83 30.9642 49.7965 31.1728 49.2062 31.7441C49.425 29.0735 48.8894 28.955 47.6574 26.8029Z"/>
	<defs>
		<linearGradient id="gradient_0" gradientUnits="userSpaceOnUse" x1="20.613592" y1="58.673294" x2="16.992331" y2="56.32069">
			<stop offset="0" stop-color="#5A413F"/>
			<stop offset="1" stop-color="#755754"/>
		</linearGradient>
	</defs>
	<path fill="url(#gradient_0)" d="M19.3045 52.2195C19.4917 52.7488 19.6518 52.9989 20.1273 53.3044C21.6511 53.4025 22.6293 51.6273 23.7791 50.7292L24.0996 51.1696C24.453 51.0246 24.5639 50.9532 24.9514 51.021C25.0899 51.498 25.1044 51.7718 24.9415 52.2441L24.5383 52.1623C23.9556 53.2453 24.074 54.5586 23.5383 55.6627C20.8945 57.3917 18.146 60.2227 16.6737 62.9991C15.6215 63.4178 15.4717 64.8204 14.3418 65.4703C14.3025 65.4929 14.2637 65.513 14.2227 65.5323L14.0261 62.8126C14.5657 59.2352 17.295 55.1594 19.3045 52.2195Z"/>
	<path fill="#DFB2A1" d="M46.5832 16.4083C47.7111 16.6747 48.7491 16.9312 49.92 16.8208C50.1978 17.5528 50.4178 18.2276 51.0076 18.7739C50.9264 19.8763 51.0367 21.0346 50.1331 21.8122Q50.0843 21.8542 50.0346 21.8951L48.0098 22.5455C46.9451 23.4746 46.7742 24.2817 46.6132 25.6389L47.1253 26.4246C47.0086 26.922 46.9315 27.5019 46.7504 27.9752C45.3712 28.5993 44.0185 29.2213 42.712 29.9905C42.6835 28.5301 42.7098 27.0424 42.5107 25.5935Q42.8068 25.5454 43.0965 25.4678C44.2214 25.1582 44.5751 23.6845 45.1068 22.7426C44.5152 22.5773 43.932 22.4496 43.3266 22.3465C43.8363 22.1904 43.9619 22.1807 44.2623 21.7377Q43.8999 20.9991 43.551 20.254C43.7382 19.3159 44.2418 19.766 44.8332 19.0856C44.8501 17.8201 44.1739 18.1709 43.8309 17.1519C43.8265 17.1388 43.8224 17.1256 43.8182 17.1125L43.453 16.8284C44.4492 16.5225 45.5479 16.4953 46.5832 16.4083Z"/>
	<path fill="#B58C7D" d="M46.5832 16.4083C47.7111 16.6747 48.7491 16.9312 49.92 16.8208C50.1978 17.5528 50.4178 18.2276 51.0076 18.7739C50.9264 19.8763 51.0367 21.0346 50.1331 21.8122Q50.0843 21.8542 50.0346 21.8951L48.0098 22.5455C48.0129 22.3953 48.0074 22.2472 47.9896 22.0978C47.8667 21.064 45.3471 17.6285 44.4952 16.9678L43.8182 17.1125L43.453 16.8284C44.4492 16.5225 45.5479 16.4953 46.5832 16.4083Z"/>
	<path fill="#745B54" d="M42.712 29.9905C44.0185 29.2213 45.3712 28.5993 46.7504 27.9752C47.2106 29.1694 47.6964 31.7914 48.2421 32.5715L48.6899 32.7293C49.0583 32.4612 49.109 32.1658 49.2062 31.7441C49.7965 31.1728 49.83 30.9642 50.0145 30.1956C50.1834 31.0173 50.554 31.6198 50.9924 32.322C50.2451 33.475 49.6542 33.9876 48.3331 34.4101C46.8625 35.4571 45.7272 36.8137 44.5495 38.1675C44.5363 38.5152 44.4952 38.8727 44.6267 39.2026L43.7186 39.2631C42.7258 38.7375 41.2359 36.9762 40.3054 36.7887C40.2066 36.7688 40.1106 36.7513 40.0097 36.7439L39.8445 36.2996L39.789 35.753L39.2329 35.3894C39.7384 34.1926 38.8651 32.7371 38.9635 31.4489L39.463 31.279L40.2119 32.9199C41.4639 32.3054 41.4157 31.8599 42.3403 30.9843L42.3681 30.9583L42.712 29.9905Z"/>
	<path fill="#DFB2A1" d="M42.3681 30.9583C42.6741 31.4232 42.7057 31.5219 43.2454 31.6694C44.0347 31.1876 45.1819 30.4783 46.1511 30.7149C46.2229 30.7324 46.292 30.7549 46.3612 30.7805L46.6427 31.2621C46.2725 31.9674 45.6936 31.8644 45.4199 32.748C45.6372 33.2756 45.8372 33.7717 45.925 34.3402C45.595 34.8693 45.3841 35.3115 44.7248 35.4743C43.8434 35.692 42.5912 35.1896 41.8545 34.7175C41.2622 34.3379 40.4875 33.5723 40.2119 32.9199C41.4639 32.3054 41.4157 31.8599 42.3403 30.9843L42.3681 30.9583Z"/>
	<path fill="#F8D5C8" d="M38.7269 21.6905C38.6704 20.8803 38.929 19.7791 39.1135 18.9786C39.3131 18.1124 39.7458 17.2488 40.5304 16.7722C41.4727 16.1999 42.4698 16.576 43.453 16.8284L43.8182 17.1125C43.8224 17.1256 43.8265 17.1388 43.8309 17.1519C44.1739 18.1709 44.8501 17.8201 44.8332 19.0856C44.2418 19.766 43.7382 19.3159 43.551 20.254Q43.8999 20.9991 44.2623 21.7377C43.9619 22.1807 43.8363 22.1904 43.3266 22.3465C43.932 22.4496 44.5152 22.5773 45.1068 22.7426C44.5751 23.6845 44.2214 25.1582 43.0965 25.4678Q42.8068 25.5454 42.5107 25.5935C42.7098 27.0424 42.6835 28.5301 42.712 29.9905L42.3681 30.9583L42.3403 30.9843C41.4157 31.8599 41.4639 32.3054 40.2119 32.9199L39.463 31.279C39.3695 29.4154 38.8708 27.3676 38.4677 25.5372C38.4447 24.2162 38.4477 22.9928 38.7269 21.6905Z"/>
	<path fill="#B58C7D" d="M40.15 22.4935C41.229 22.1951 42.2265 22.2689 43.3266 22.3465C43.932 22.4496 44.5152 22.5773 45.1068 22.7426C44.5751 23.6845 44.2214 25.1582 43.0965 25.4678Q42.8068 25.5454 42.5107 25.5935C41.6742 24.6251 40.7122 23.6522 40.15 22.4935Z"/>
	<path fill="#2C2320" d="M23.5383 55.6627C24.074 54.5586 23.9556 53.2453 24.5383 52.1623L24.9415 52.2441C24.9927 53.2838 25.1226 54.2596 25.3334 55.2788C25.21 56.3931 25.2023 57.4933 25.4459 58.5953L25.4703 60.2651C26.1191 60.992 26.0855 61.921 26.2281 62.8711L26.2467 67L22.2328 67L17.2115 67L14.2386 67L14.2227 65.5323C14.2637 65.513 14.3025 65.4929 14.3418 65.4703C15.4717 64.8204 15.6215 63.4178 16.6737 62.9991C18.146 60.2227 20.8945 57.3917 23.5383 55.6627Z"/>
	<path fill="#57403A" d="M14.2227 65.5323C14.2637 65.513 14.3025 65.4929 14.3418 65.4703C15.4717 64.8204 15.6215 63.4178 16.6737 62.9991L18.3342 63.1903C17.7267 63.4813 17.6522 63.6836 17.4328 64.3162C17.1616 65.0984 17.2218 66.1701 17.2115 67L14.2386 67L14.2227 65.5323Z"/>
	<path fill="#C5C5C5" d="M25.4703 60.2651C26.1191 60.992 26.0855 61.921 26.2281 62.8711L26.2467 67L22.2328 67C22.0658 63.881 23.7106 62.6473 25.4703 60.2651Z"/>
	<path fill="#4C322E" d="M16.6737 62.9991C18.146 60.2227 20.8945 57.3917 23.5383 55.6627C23.3982 57.2142 23.0972 58.7289 22.8024 60.2564C21.4723 61.6076 20.2593 62.7695 18.3342 63.1903L16.6737 62.9991Z"/>
	<defs>
		<linearGradient id="gradient_1" gradientUnits="userSpaceOnUse" x1="39.327389" y1="48.276711" x2="27.433512" y2="37.725113">
			<stop offset="0" stop-color="#5E4440"/>
			<stop offset="1" stop-color="#8C625E"/>
		</linearGradient>
	</defs>
	<path fill="url(#gradient_1)" d="M39.2329 35.3894L39.789 35.753L39.8445 36.2996L40.0097 36.7439C40.1106 36.7513 40.2066 36.7688 40.3054 36.7887C41.2359 36.9762 42.7258 38.7375 43.7186 39.2631C44.5302 40.2174 44.7789 41.2968 44.6685 42.5745C44.6185 43.153 44.3882 44.0041 43.9262 44.3843C43.7138 44.5591 42.9258 44.5932 42.6199 44.6047L41.4143 43.9999C41.1887 44.8012 41.0698 44.9928 40.4554 45.5544L40.1697 45.5371C39.8221 45.9336 39.4122 46.2516 39.3388 46.7806C38.3185 48.9459 38.405 51.2269 37.9545 53.5384L37.9679 53.9747C37.8075 54.7648 37.4472 55.8293 37.4711 56.6176L37.1958 57.912C36.5519 60.9209 37.2607 64.0465 37.8769 67L33.9093 67L31.0452 67L30.1332 67L26.2467 67L26.2281 62.8711C26.0855 61.921 26.1191 60.992 25.4703 60.2651L25.4459 58.5953C25.2023 57.4933 25.21 56.3931 25.3334 55.2788C25.1226 54.2596 24.9927 53.2838 24.9415 52.2441C25.1044 51.7718 25.0899 51.498 24.9514 51.021C24.5639 50.9532 24.453 51.0246 24.0996 51.1696L23.7791 50.7292C24.2058 49.253 23.9246 47.5959 24.4962 46.1978C24.2361 46.1645 23.9711 46.0803 23.7161 46.0179L23.3403 45.1933L22.8026 45.2899C23.5634 43.7901 23.5559 41.8702 24.6425 40.5204C26.4826 38.2348 35.8998 38.4696 39.2329 35.3894Z"/>
	<path fill="#57403A" d="M38.8225 44.0694C38.9918 44.6769 39.0093 45.0551 39.5933 45.4031C39.7546 45.4992 39.9859 45.5215 40.1697 45.5371C39.8221 45.9336 39.4122 46.2516 39.3388 46.7806L37.4966 46.2626C37.2681 45.7837 37.3443 45.3337 37.3996 44.8216C37.9189 44.219 38.0614 44.2234 38.8225 44.0694Z"/>
	<defs>
		<linearGradient id="gradient_2" gradientUnits="userSpaceOnUse" x1="40.629921" y1="44.783955" x2="38.479576" y2="38.514233">
			<stop offset="0" stop-color="#42322A"/>
			<stop offset="1" stop-color="#604533"/>
		</linearGradient>
	</defs>
	<path fill="url(#gradient_2)" d="M38.8225 44.0694C39.026 43.4573 38.5051 42.4149 38.3977 41.7409C38.124 40.025 38.2705 37.8064 39.3223 36.3535L39.8445 36.2996L40.0097 36.7439C39.9952 39.3885 40.0183 41.6462 41.4143 43.9999C41.1887 44.8012 41.0698 44.9928 40.4554 45.5544L40.1697 45.5371C39.9859 45.5215 39.7546 45.4992 39.5933 45.4031C39.0093 45.0551 38.9918 44.6769 38.8225 44.0694Z"/>
	<path fill="#DFB2A1" d="M40.0097 36.7439C40.1106 36.7513 40.2066 36.7688 40.3054 36.7887C41.2359 36.9762 42.7258 38.7375 43.7186 39.2631C44.5302 40.2174 44.7789 41.2968 44.6685 42.5745C44.6185 43.153 44.3882 44.0041 43.9262 44.3843C43.7138 44.5591 42.9258 44.5932 42.6199 44.6047L41.4143 43.9999C40.0183 41.6462 39.9952 39.3885 40.0097 36.7439Z"/>
	<path fill="#745B54" d="M25.5269 47.1923C25.5804 47.1605 25.57 47.1686 25.613 47.1373C25.6289 47.1257 25.6443 47.1134 25.6604 47.1021C27.2404 45.9979 27.109 43.0937 28.7426 41.7519C29.4596 41.163 32.974 39.4665 33.8231 39.5529C34.4957 39.6214 34.9948 39.8836 35.4181 40.4031C35.5311 41.0435 35.5348 41.1809 35.2936 41.7832L34.6227 41.9704C34.0917 42.2635 33.4806 42.4786 33.2999 43.124C33.1164 43.7798 33.0523 44.5216 32.9603 45.1971C32.045 45.8154 31.5602 45.2892 30.5791 45.7481C29.9993 46.4466 29.525 47.1137 29.1118 47.9233C28.3317 47.9673 27.3235 48.0321 26.5656 47.8667C26.0731 47.7592 25.7959 47.6167 25.5269 47.1923Z"/>
	<path fill="#4C322E" d="M34.6227 41.9704C35.7576 44.5894 34.1606 49.5393 33.9945 52.3903C33.9241 53.5989 34.1055 54.847 34.2484 56.0471C34.6911 54.6532 35.0555 52.7 36.4851 51.9867C36.5737 51.9425 36.6622 51.9119 36.758 51.888C36.8664 50.0301 37.2475 48.1115 37.4966 46.2626L39.3388 46.7806C38.3185 48.9459 38.405 51.2269 37.9545 53.5384L37.9679 53.9747C37.8075 54.7648 37.4472 55.8293 37.4711 56.6176L37.1958 57.912C36.5519 60.9209 37.2607 64.0465 37.8769 67L33.9093 67L31.0452 67L30.1332 67C30.1881 65.6126 30.0542 63.8474 30.6472 62.5743L31.4347 63.2446C31.9357 62.435 32.4067 61.6533 32.5862 60.7071C33.1037 57.9807 32.7496 55.1889 32.9502 52.4395C33.051 51.0583 33.838 48.2917 33.5472 47.0968C33.4955 46.8841 33.0639 46.3909 32.9242 46.187L33.0732 45.6182L32.9603 45.1971C33.0523 44.5216 33.1164 43.7798 33.2999 43.124C33.4806 42.4786 34.0917 42.2635 34.6227 41.9704Z"/>
	<defs>
		<linearGradient id="gradient_3" gradientUnits="userSpaceOnUse" x1="40.557693" y1="64.469131" x2="32.524891" y2="51.939583">
			<stop offset="0" stop-color="#0D080A"/>
			<stop offset="1" stop-color="#3C2A22"/>
		</linearGradient>
	</defs>
	<path fill="url(#gradient_3)" d="M37.4966 46.2626L39.3388 46.7806C38.3185 48.9459 38.405 51.2269 37.9545 53.5384L37.9679 53.9747C37.8075 54.7648 37.4472 55.8293 37.4711 56.6176L37.1958 57.912C36.5519 60.9209 37.2607 64.0465 37.8769 67L33.9093 67C34.6349 64.4529 35.1864 61.8119 35.4145 59.1724C35.8661 56.6849 36.713 54.4637 36.758 51.888C36.8664 50.0301 37.2475 48.1115 37.4966 46.2626Z"/>
	<path fill="#57403A" d="M32.9603 45.1971L33.0732 45.6182L32.9242 46.187C33.0639 46.3909 33.4955 46.8841 33.5472 47.0968C33.838 48.2917 33.051 51.0583 32.9502 52.4395C32.7496 55.1889 33.1037 57.9807 32.5862 60.7071C32.4067 61.6533 31.9357 62.435 31.4347 63.2446L30.6472 62.5743C30.0542 63.8474 30.1881 65.6126 30.1332 67L26.2467 67L26.2281 62.8711C26.0855 61.921 26.1191 60.992 25.4703 60.2651L25.4459 58.5953C25.2023 57.4933 25.21 56.3931 25.3334 55.2788C25.1226 54.2596 24.9927 53.2838 24.9415 52.2441C25.1044 51.7718 25.0899 51.498 24.9514 51.021C24.5639 50.9532 24.453 51.0246 24.0996 51.1696L23.7791 50.7292C24.2058 49.253 23.9246 47.5959 24.4962 46.1978L25.5269 47.1923C25.7959 47.6167 26.0731 47.7592 26.5656 47.8667C27.3235 48.0321 28.3317 47.9673 29.1118 47.9233C29.525 47.1137 29.9993 46.4466 30.5791 45.7481C31.5602 45.2892 32.045 45.8154 32.9603 45.1971Z"/>
	<path fill="#4C322E" d="M29.0618 49.0921C29.784 49.2871 30.514 49.4678 31.2224 49.7088C30.3805 51.3583 28.921 53.5243 27.6338 54.8544C27.6246 54.8456 27.6152 54.8369 27.6061 54.8279C26.9321 54.1605 26.6939 53.8207 26.4931 52.8761C27.198 51.5612 28.3108 50.4345 29.0618 49.0921Z"/>
	<path fill="#57403A" d="M26.4931 52.8761C26.6939 53.8207 26.9321 54.1605 27.6061 54.8279C27.6152 54.8369 27.6246 54.8456 27.6338 54.8544L27.3755 55.4117C27.5049 56.1993 27.6236 56.8682 28.316 57.375C28.3868 57.4269 28.4609 57.4662 28.5407 57.5022C27.1833 59.4031 26.3248 60.4524 26.2281 62.8711C26.0855 61.921 26.1191 60.992 25.4703 60.2651L25.4459 58.5953C25.2023 57.4933 25.21 56.3931 25.3334 55.2788C25.3429 55.273 25.3525 55.2674 25.3619 55.2614C26.0861 54.8043 26.3056 53.6575 26.4931 52.8761Z"/>
	<path fill="#4C322E" d="M26.4931 52.8761C26.6939 53.8207 26.9321 54.1605 27.6061 54.8279C27.6152 54.8369 27.6246 54.8456 27.6338 54.8544L27.3755 55.4117C26.2157 56.5477 25.4645 56.595 25.4469 58.4199L25.4459 58.5953C25.2023 57.4933 25.21 56.3931 25.3334 55.2788C25.3429 55.273 25.3525 55.2674 25.3619 55.2614C26.0861 54.8043 26.3056 53.6575 26.4931 52.8761Z"/>
	<path fill="#4C322E" d="M28.5407 57.5022C29.2323 56.4689 29.9013 55.2716 30.8373 54.4444L31.2719 54.411C31.4243 55.7539 30.7671 57.566 30.652 58.9635C30.5528 60.1671 30.8449 61.3514 30.6472 62.5743C30.0542 63.8474 30.1881 65.6126 30.1332 67L26.2467 67L26.2281 62.8711C26.3248 60.4524 27.1833 59.4031 28.5407 57.5022Z"/>
	<defs>
		<linearGradient id="gradient_4" gradientUnits="userSpaceOnUse" x1="76.635643" y1="59.345509" x2="47.313313" y2="48.543442">
			<stop offset="0" stop-color="black"/>
			<stop offset="1" stop-color="#2B2422"/>
		</linearGradient>
	</defs>
	<path fill="url(#gradient_4)" d="M50.9924 32.322L51.2929 31.8594C51.8875 31.8339 51.9912 31.9486 52.4948 32.279L52.6312 33.1736C52.4855 33.9984 52.2589 34.8063 52.6399 35.5971C53.3523 36.5575 55.0351 36.7842 56.1323 37.084C59.0139 37.3681 63.1365 38.7165 66.0309 39.5607C66.6752 41.1979 67.5516 42.9497 67.9952 44.6408C68.773 46.4325 74.0605 56.9209 73.984 57.6778C75.3179 59.3619 74.8456 63.1646 74.6117 65.1905C74.5387 65.8225 74.4521 66.4645 74.0809 67L53.7694 67L44.1487 67L41.6127 67L37.8769 67C37.2607 64.0465 36.5519 60.9209 37.1958 57.912L37.4711 56.6176C37.4472 55.8293 37.8075 54.7648 37.9679 53.9747L37.9545 53.5384C38.405 51.2269 38.3185 48.9459 39.3388 46.7806C39.4122 46.2516 39.8221 45.9336 40.1697 45.5371L40.4554 45.5544C41.0698 44.9928 41.1887 44.8012 41.4143 43.9999L42.6199 44.6047C42.9258 44.5932 43.7138 44.5591 43.9262 44.3843C44.3882 44.0041 44.6185 43.153 44.6685 42.5745C44.7789 41.2968 44.5302 40.2174 43.7186 39.2631L44.6267 39.2026C44.4952 38.8727 44.5363 38.5152 44.5495 38.1675C45.7272 36.8137 46.8625 35.4571 48.3331 34.4101C49.6542 33.9876 50.2451 33.475 50.9924 32.322Z"/>
	<path fill="#745B54" d="M64.4098 49.0938L64.9211 49.4197C64.9867 49.6018 65.0222 49.7892 65.0041 49.983C64.8801 51.316 63.8429 53.9216 62.7895 54.7759C62.4926 54.4657 62.254 54.3106 62.1832 53.8737C61.9124 52.2011 63.4806 50.3618 64.4098 49.0938Z"/>
	<path fill="#585249" d="M53.394 44.2833C53.7571 43.2925 53.8753 42.2844 54.3545 41.3346C54.8866 40.831 55.5136 40.8512 56.2023 40.812C54.3768 45.3481 53.4968 46.466 49.5207 49.1466C49.4431 48.6119 49.0705 48.1468 48.7772 47.7059C49.6788 46.7387 50.2368 45.746 50.6468 44.4933C50.7182 44.9089 50.854 45.2644 51.0175 45.6513L51.4631 45.758C52.1291 45.294 52.7599 44.7892 53.394 44.2833Z"/>
	<path fill="#2C2B27" d="M50.527 39.3414C51.162 40.0344 51.2828 40.3421 52.2359 40.4971C53.362 40.1218 54.3186 38.4093 55.1393 38.245C55.6693 38.5561 55.9453 38.8905 56.0972 39.5079C56.1977 39.9163 56.1932 40.3916 56.2023 40.812C55.5136 40.8512 54.8866 40.831 54.3545 41.3346C53.8753 42.2844 53.7571 43.2925 53.394 44.2833C52.7599 44.7892 52.1291 45.294 51.4631 45.758L51.0175 45.6513C50.854 45.2644 50.7182 44.9089 50.6468 44.4933C50.8846 44.2312 51.127 43.9577 51.3251 43.6636C51.6569 43.1712 51.9468 42.6103 51.834 42.0041L51.3863 41.7976C50.456 41.9494 49.8044 42.8192 49.1865 43.4738C49.0926 42.465 49.1162 41.1353 48.6169 40.2451C49.4665 39.8536 49.445 39.4872 50.527 39.3414Z"/>
	<path fill="#2C2B27" d="M50.9924 32.322L51.2929 31.8594C51.8875 31.8339 51.9912 31.9486 52.4948 32.279L52.6312 33.1736C52.4855 33.9984 52.2589 34.8063 52.6399 35.5971C53.3523 36.5575 55.0351 36.7842 56.1323 37.084C54.5784 37.4502 53.1901 36.2396 51.8785 36.6318C52.1873 37.441 52.4123 38.8343 52.0702 39.65C51.9544 39.9262 51.8163 40.0245 51.5553 40.1508C51.0156 39.6881 51.7454 39.1125 50.6976 39.1897C50.617 39.1956 50.5386 39.2192 50.4631 39.2465L50.527 39.3414C49.445 39.4872 49.4665 39.8536 48.6169 40.2451C48.2923 40.6089 47.9889 40.9864 47.6873 41.3692C47.6543 41.3519 47.6214 41.3344 47.5894 41.3153L47.5446 41.2883C46.4324 40.629 46.4231 39.9479 44.6267 39.2026C44.4952 38.8727 44.5363 38.5152 44.5495 38.1675C45.7272 36.8137 46.8625 35.4571 48.3331 34.4101C49.6542 33.9876 50.2451 33.475 50.9924 32.322Z"/>
	<path fill="#2C2320" d="M44.6267 39.2026C44.4952 38.8727 44.5363 38.5152 44.5495 38.1675C45.7272 36.8137 46.8625 35.4571 48.3331 34.4101C48.8955 34.71 49.2788 34.8413 49.6329 35.3879C49.198 36.0311 48.0118 35.7099 47.4321 36.398C47.9438 37.4383 48.845 38.1833 49.5264 39.1076L50.4631 39.2465L50.527 39.3414C49.445 39.4872 49.4665 39.8536 48.6169 40.2451C48.2923 40.6089 47.9889 40.9864 47.6873 41.3692C47.6543 41.3519 47.6214 41.3344 47.5894 41.3153L47.5446 41.2883C46.4324 40.629 46.4231 39.9479 44.6267 39.2026Z"/>
	<path fill="#B58C7D" d="M44.6267 39.2026C46.4231 39.9479 46.4324 40.629 47.5446 41.2883L47.5894 41.3153C47.6214 41.3344 47.6543 41.3519 47.6873 41.3692C47.9889 40.9864 48.2923 40.6089 48.6169 40.2451C49.1162 41.1353 49.0926 42.465 49.1865 43.4738C49.8044 42.8192 50.456 41.9494 51.3863 41.7976L51.834 42.0041C51.9468 42.6103 51.6569 43.1712 51.3251 43.6636C51.127 43.9577 50.8846 44.2312 50.6468 44.4933C50.2368 45.746 49.6788 46.7387 48.7772 47.7059C49.0705 48.1468 49.4431 48.6119 49.5207 49.1466C48.8003 49.5589 48.16 49.9406 47.5706 50.5334L46.7219 49.9466L46.0598 49.0953L45.4803 48.184C45.4474 48.0899 45.4086 48.001 45.3675 47.9102C44.875 46.8222 43.3203 45.7461 42.6199 44.6047C42.9258 44.5932 43.7138 44.5591 43.9262 44.3843C44.3882 44.0041 44.6185 43.153 44.6685 42.5745C44.7789 41.2968 44.5302 40.2174 43.7186 39.2631L44.6267 39.2026Z"/>
	<path fill="#757272" d="M48.7772 47.7059C49.0705 48.1468 49.4431 48.6119 49.5207 49.1466C48.8003 49.5589 48.16 49.9406 47.5706 50.5334L46.7219 49.9466L46.0598 49.0953C46.8382 48.4283 47.8767 48.1913 48.7772 47.7059Z"/>
	<path fill="#2C2B27" d="M41.4143 43.9999L42.6199 44.6047C43.3203 45.7461 44.875 46.8222 45.3675 47.9102C45.4086 48.001 45.4474 48.0899 45.4803 48.184L46.0598 49.0953L46.7219 49.9466L47.5706 50.5334C47.202 50.9817 46.7658 51.4356 46.4631 51.9293C46.7467 52.2057 47.0087 52.5984 47.4145 52.6107C48.7286 52.6508 54.1571 48.4711 56.6343 49.8821C58.3958 52.4494 57.1507 56.8478 56.7985 59.7265C56.6685 60.7889 56.7228 61.9084 56.5243 62.9534C56.2303 64.5009 54.8783 65.9614 53.7694 67L44.1487 67L41.6127 67L37.8769 67C37.2607 64.0465 36.5519 60.9209 37.1958 57.912L37.4711 56.6176C37.4472 55.8293 37.8075 54.7648 37.9679 53.9747L37.9545 53.5384C38.405 51.2269 38.3185 48.9459 39.3388 46.7806C39.4122 46.2516 39.8221 45.9336 40.1697 45.5371L40.4554 45.5544C41.0698 44.9928 41.1887 44.8012 41.4143 43.9999Z"/>
	<path fill="#444137" d="M41.6127 67C42.2135 65.6674 42.8691 64.0338 44.3472 63.4661C44.63 63.3575 44.9494 63.339 45.2498 63.3424C45.5465 63.5716 45.6811 63.6245 45.7266 64.0217C45.8203 64.8387 45.1561 65.8252 44.6604 66.4315Q44.4174 66.7273 44.1487 67L41.6127 67Z"/>
	<path fill="#444137" d="M37.9679 53.9747C38.0356 55.3172 38.274 55.6792 39.2762 56.5852C39.5812 56.861 39.9844 57.0416 40.4014 57.0199C40.5411 57.0127 40.6767 56.9876 40.8123 56.954C40.9908 56.5246 41.1164 56.1014 41.2281 55.6503L41.895 55.936C42.385 57.201 41.1386 57.8815 42.6148 58.9196C42.8552 58.6425 43.1073 58.333 43.3913 58.1005C44.1687 57.4641 45.2199 57.675 46.1505 57.7787C46.1461 58.1963 46.2022 58.7456 46.0861 59.1414L45.9959 60.6631C45.0565 61.8259 41.5865 62.2925 39.3223 64.0534C39.0923 63.2348 38.9087 62.711 38.3207 62.0734C37.024 60.6675 37.1205 59.7079 37.1958 57.912L37.4711 56.6176C37.4472 55.8293 37.8075 54.7648 37.9679 53.9747Z"/>
	<path fill="#2C2B27" d="M42.6148 58.9196C42.8552 58.6425 43.1073 58.333 43.3913 58.1005C44.1687 57.4641 45.2199 57.675 46.1505 57.7787C46.1461 58.1963 46.2022 58.7456 46.0861 59.1414L43.8489 59.9734L42.8829 59.6077L42.6148 58.9196Z"/>
	<path fill="#585249" d="M37.9679 53.9747C38.0356 55.3172 38.274 55.6792 39.2762 56.5852C39.5812 56.861 39.9844 57.0416 40.4014 57.0199C40.5411 57.0127 40.6767 56.9876 40.8123 56.954C40.9908 56.5246 41.1164 56.1014 41.2281 55.6503C41.3598 57.3267 41.5416 58.6735 40.3759 60.0625C39.73 59.7288 38.5537 59.9274 37.8186 59.94C37.2523 59.0862 37.4437 57.6325 37.4711 56.6176C37.4472 55.8293 37.8075 54.7648 37.9679 53.9747Z"/>
	<path fill="#745B54" d="M41.4143 43.9999L42.6199 44.6047C43.3203 45.7461 44.875 46.8222 45.3675 47.9102C45.4086 48.001 45.4474 48.0899 45.4803 48.184L46.0598 49.0953L46.7219 49.9466L47.5706 50.5334C47.202 50.9817 46.7658 51.4356 46.4631 51.9293L45.8983 52.3955L46.0591 53.9675C46.7945 55.1632 46.4158 56.4909 46.1505 57.7787C45.2199 57.675 44.1687 57.4641 43.3913 58.1005C43.1073 58.333 42.8552 58.6425 42.6148 58.9196C41.1386 57.8815 42.385 57.201 41.895 55.936L41.2281 55.6503C41.1164 56.1014 40.9908 56.5246 40.8123 56.954C40.6767 56.9876 40.5411 57.0127 40.4014 57.0199C39.9844 57.0416 39.5812 56.861 39.2762 56.5852C38.274 55.6792 38.0356 55.3172 37.9679 53.9747L37.9545 53.5384C38.405 51.2269 38.3185 48.9459 39.3388 46.7806C39.4122 46.2516 39.8221 45.9336 40.1697 45.5371L40.4554 45.5544C41.0698 44.9928 41.1887 44.8012 41.4143 43.9999Z"/>
	<path fill="#57403A" d="M41.4143 43.9999L42.6199 44.6047C43.3203 45.7461 44.875 46.8222 45.3675 47.9102C45.4086 48.001 45.4474 48.0899 45.4803 48.184L46.0598 49.0953L46.7219 49.9466C45.8398 50.6432 44.6369 51.533 43.5872 51.9337L43.4387 51.1948Q43.5047 51.1347 43.5691 51.0728C44.1365 50.5281 44.4189 50.1911 44.4366 49.4122L43.9893 49.1884C42.9507 49.3222 42.6468 49.6011 41.817 50.2234C41.7681 49.7311 41.8728 49.1641 41.9161 48.6687C41.7129 48.6653 41.4414 48.4594 41.2629 48.3559C40.967 47.4334 40.6393 46.5068 40.4554 45.5544C41.0698 44.9928 41.1887 44.8012 41.4143 43.9999Z"/>
	<path fill="#757272" d="M41.4143 43.9999L42.6199 44.6047C43.3203 45.7461 44.875 46.8222 45.3675 47.9102C45.4086 48.001 45.4474 48.0899 45.4803 48.184L43.0757 45.9639L41.9161 48.6687C41.7129 48.6653 41.4414 48.4594 41.2629 48.3559C40.967 47.4334 40.6393 46.5068 40.4554 45.5544C41.0698 44.9928 41.1887 44.8012 41.4143 43.9999Z"/>
	<path fill="#585249" d="M46.7219 49.9466L47.5706 50.5334C47.202 50.9817 46.7658 51.4356 46.4631 51.9293L45.8983 52.3955L46.0591 53.9675C46.7945 55.1632 46.4158 56.4909 46.1505 57.7787C45.2199 57.675 44.1687 57.4641 43.3913 58.1005C43.1073 58.333 42.8552 58.6425 42.6148 58.9196C41.1386 57.8815 42.385 57.201 41.895 55.936L41.2281 55.6503L41.314 55.3486C41.1442 55.0413 40.8997 54.882 40.6199 54.6863C40.5264 54.2751 40.4452 54.0207 40.619 53.6099C40.8911 52.9669 41.7514 52.0553 42.3998 51.8011C42.7647 51.6581 43.1085 51.4049 43.4387 51.1948L43.5872 51.9337C44.6369 51.533 45.8398 50.6432 46.7219 49.9466Z"/>
	<path fill="#444137" d="M42.6829 55.623C43.5078 54.4426 44.7691 53.2806 45.8983 52.3955L46.0591 53.9675L46.0076 54.0065C44.9986 54.7785 44.9286 56.1418 43.9107 56.8302C43.2839 56.7013 43.1968 56.5262 42.8359 55.9914C42.7589 55.8773 42.7159 55.7558 42.6829 55.623Z"/>
	<path fill="#745B54" d="M46.7219 49.9466L47.5706 50.5334C47.202 50.9817 46.7658 51.4356 46.4631 51.9293L45.8983 52.3955C44.7691 53.2806 43.5078 54.4426 42.6829 55.623C42.4245 55.7525 42.0404 55.5896 41.7738 55.5187C41.6774 55.2207 41.5624 55.0247 41.6584 54.7142C41.906 53.9137 42.8417 52.328 43.5872 51.9337C44.6369 51.533 45.8398 50.6432 46.7219 49.9466Z"/>
	<defs>
		<linearGradient id="gradient_5" gradientUnits="userSpaceOnUse" x1="98.603828" y1="46.092388" x2="-1.8498765" y2="22.315416">
			<stop offset="0" stop-color="#8F8F8E"/>
			<stop offset="1" stop-color="#A9A9A9"/>
		</linearGradient>
	</defs>
	<path fill="url(#gradient_5)" d="M0 0L15.375 0L89.6158 0L99.5625 0C100.23 1.02438 100.296 16.8259 99.9056 18.6579Q99.8328 18.9882 99.6883 19.294C100.259 20.5774 100.299 39.9314 99.8233 41.1527C99.7826 41.2569 99.739 41.3582 99.6875 41.4575C100.128 42.5399 100.311 65.3523 99.8019 66.572Q99.7065 66.7996 99.5625 67L74.0809 67C74.4521 66.4645 74.5387 65.8225 74.6117 65.1905C74.8456 63.1646 75.3179 59.3619 73.984 57.6778C74.0605 56.9209 68.773 46.4325 67.9952 44.6408C68.1728 44.3593 68.3038 44.2656 68.225 43.9209C68.0483 43.1474 67.261 42.2198 67.3869 41.5229C67.8798 41.453 68.4328 41.4309 68.7983 41.0549C71.5929 36.5087 71.9227 29.1999 70.7122 24.1165C69.1385 17.5081 64.6021 12.3269 58.9047 8.82924C51.5941 4.34115 41.8827 3.51416 33.626 5.50097C23.517 7.93347 12.9387 15.34 7.49787 24.2431C2.94547 31.6924 -0.307311 41.9743 1.79783 50.6847C2.95182 55.4595 6.59834 60.362 10.8223 62.94C11.392 63.2877 12.2514 63.697 12.9263 63.5354C13.487 63.4011 13.7119 63.2644 14.0261 62.8126L14.2227 65.5323L14.2386 67L0 67L0 14.5833L0 0Z"/>
	<path fill="#757272" d="M89.6158 0L99.5625 0C100.23 1.02438 100.296 16.8259 99.9056 18.6579Q99.8328 18.9882 99.6883 19.294C98.1159 13.0064 95.1909 7.91095 91.5226 2.6647C90.8786 1.7437 90.5352 0.692833 89.6158 0Z"/>
	<defs>
		<linearGradient id="gradient_6" gradientUnits="userSpaceOnUse" x1="0.26458508" y1="0.22725719" x2="7.6135836" y2="7.3564472">
			<stop offset="0" stop-color="#403F3F"/>
			<stop offset="1" stop-color="#7D7D7D"/>
		</linearGradient>
	</defs>
	<path fill="url(#gradient_6)" d="M0 0L15.375 0C13.8074 1.05931 8.83154 4.8875 7.80144 6.20689C7.06435 7.15096 6.63697 8.91423 5.78919 9.65237C5.72831 9.70537 5.66845 9.75584 5.60277 9.80307C5.45566 9.55954 5.28813 9.166 5.00406 9.07592C4.52695 9.66491 4.4489 10.6753 4.10431 11.0785C3.73323 11.5126 2.80667 11.6878 2.29712 12.283L2.51831 12.1434L2.29284 12.4534L2.64736 13.0462L2.33693 13.2726L2.41779 13.509C1.99119 13.6346 1.51761 14.3189 1.20378 14.6593L0.924403 13.9128C0.593011 14.2814 0.478623 14.4315 0 14.5833L0 0Z"/>
	<defs>
		<linearGradient id="gradient_7" gradientUnits="userSpaceOnUse" x1="96.919998" y1="68.614296" x2="85.320198" y2="51.00581">
			<stop offset="0" stop-color="#525252"/>
			<stop offset="1" stop-color="#858584"/>
		</linearGradient>
	</defs>
	<path fill="url(#gradient_7)" d="M75.2842 63.9888C75.5259 63.918 75.7564 63.8173 75.9876 63.7181C82.1174 61.0889 92.4255 53.4323 96.356 48.0694C97.8432 46.0401 98.7587 43.7795 99.6875 41.4575C100.128 42.5399 100.311 65.3523 99.8019 66.572Q99.7065 66.7996 99.5625 67L74.0809 67C74.4521 66.4645 74.5387 65.8225 74.6117 65.1905C74.8456 63.1646 75.3179 59.3619 73.984 57.6778L74.92 58.0186C75.0958 58.2573 75.2409 58.5113 75.3504 58.7868C75.8225 59.9742 75.7882 62.813 75.2842 63.9888Z"/>
</svg>
